<?xml version="1.0" encoding="UTF-8"?>
<svg id="Layer_2" data-name="Layer 2" xmlns="http://www.w3.org/2000/svg" viewBox="0 0 138.83 29.36">
  <defs>
    <style>
      .cls-1 {
        fill: #fff;
      }
    </style>
  </defs>
  <g id="Layer_1-2" data-name="Layer 1">
    <g id="Layer_1-2" data-name="Layer 1-2">
      <g>
        <g>
          <g>
            <path class="cls-1" d="M37.34,6.17c.43-.85,1.01-1.5,1.74-1.96s1.55-.69,2.45-.69c.77,0,1.45.15,2.03.47.58.32,1.03.73,1.34,1.23v-1.55h3.35v10.95h-3.35v-1.55c-.33.51-.79.92-1.37,1.23-.58.32-1.26.47-2.03.47-.89,0-1.7-.23-2.43-.7-.73-.46-1.31-1.12-1.74-1.98s-.64-1.85-.64-2.97.21-2.11.64-2.97h0ZM44.21,7.18c-.46-.48-1.03-.73-1.69-.73-.48,0-.96.15-1.36.43-.7.48-1.04,1.24-1.04,2.27,0,.84.23,1.5.7,1.99.57.6,1.29.84,2.17.7.15-.02.31-.07.44-.14.98-.47,1.48-1.31,1.48-2.53,0-.84-.23-1.5-.7-1.98Z"/>
            <path class="cls-1" d="M56.58,11.79v2.85h-1.71c-1.22,0-2.17-.3-2.85-.9s-1.02-1.56-1.02-2.91v-4.36h-1.34v-2.79h1.34V1.01h3.35v2.61s.02.05.05.05h2.14v2.79h-2.2v4.4c0,.33.08.57.23.7s.42.21.79.21h1.2Z"/>
            <path class="cls-1" d="M67.75,4.82c.76.83,1.14,1.97,1.14,3.42v6.4h-3.34v-5.95c0-.73-.19-1.3-.57-1.71s-.89-.61-1.53-.61-1.15.21-1.53.61c-.38.4-.57.98-.57,1.71v5.95h-3.35V.11h3.35v5.04c.34-.48.81-.87,1.39-1.16s1.25-.43,1.98-.43c1.26,0,2.26.42,3.02,1.25h0Z"/>
            <path class="cls-1" d="M73.02,14.11c-.86-.46-1.53-1.12-2.02-1.96-.49-.85-.73-1.84-.73-2.98s.25-2.11.75-2.97,1.17-1.51,2.04-1.97,1.83-.69,2.91-.69,2.04.23,2.91.69,1.54,1.12,2.04,1.97.75,1.85.75,2.97-.25,2.11-.76,2.97c-.51.86-1.19,1.51-2.06,1.97s-1.84.69-2.91.69-2.04-.23-2.89-.69h-.01ZM77.56,11.18c.45-.47.68-1.15.68-2.02s-.22-1.55-.66-2.02-.98-.7-1.62-.7-1.2.23-1.63.7c-.43.46-.65,1.15-.65,2.03s.21,1.55.64,2.02.96.7,1.6.7,1.19-.23,1.64-.7h0Z"/>
            <path class="cls-1" d="M85.49,14.3c-.75-.33-1.34-.78-1.77-1.34-.43-.57-.68-1.2-.73-1.92h3.32c.04.38.22.69.53.92.32.23.7.35,1.16.35.42,0,.74-.08.97-.24s.35-.37.35-.64c0-.32-.16-.54-.49-.7-.33-.15-.86-.32-1.59-.5-.79-.18-1.44-.37-1.96-.58s-.98-.52-1.35-.96c-.38-.44-.57-1.03-.57-1.78,0-.63.18-1.2.52-1.72.35-.51.86-.92,1.53-1.23s1.48-.45,2.41-.45c1.37,0,2.46.34,3.24,1.02s1.25,1.59,1.37,2.71h-3.1c-.05-.38-.22-.68-.5-.9-.28-.22-.65-.33-1.11-.33-.39,0-.7.07-.9.23s-.32.36-.32.62c0,.32.17.55.5.7s.85.32,1.56.47c.81.21,1.48.42,1.98.62.51.21.96.53,1.34.98s.59,1.06.6,1.81c0,.64-.18,1.21-.54,1.72-.36.51-.87.9-1.55,1.19-.68.29-1.45.43-2.35.43-.95,0-1.81-.16-2.55-.49h0Z"/>
          </g>
          <g>
            <path class="cls-1" d="M37.37,20.74c.45-.84,1.07-1.48,1.86-1.95s1.7-.68,2.72-.68c1.34,0,2.44.33,3.3.99.87.66,1.42,1.56,1.67,2.69h-1.48c-.18-.78-.59-1.39-1.2-1.84-.62-.44-1.38-.66-2.29-.66-.73,0-1.38.16-1.96.49s-1.04.82-1.38,1.48c-.34.65-.51,1.46-.51,2.41s.17,1.75.51,2.42.79,1.16,1.38,1.48c.58.33,1.23.5,1.96.5.91,0,1.67-.22,2.29-.67.62-.44,1.01-1.06,1.2-1.85h1.48c-.25,1.11-.81,2-1.68,2.67-.87.68-1.97,1.01-3.29,1.01-1.02,0-1.92-.23-2.72-.68s-1.42-1.1-1.86-1.95c-.45-.84-.68-1.82-.68-2.94s.23-2.11.68-2.94h0Z"/>
            <path class="cls-1" d="M51.08,28.57c-.81-.46-1.45-1.1-1.92-1.95-.47-.84-.7-1.82-.7-2.94s.23-2.11.71-2.94,1.12-1.48,1.95-1.95c.82-.46,1.74-.68,2.75-.68s1.94.23,2.77.68c.82.46,1.48,1.1,1.95,1.95.47.84.7,1.82.7,2.94s-.23,2.08-.71,2.94c-.48.84-1.13,1.5-1.96,1.95s-1.75.68-2.77.68-1.93-.23-2.75-.68h0ZM55.81,27.56c.61-.32,1.1-.81,1.48-1.47s.57-1.45.57-2.41-.18-1.75-.56-2.41-.86-1.15-1.47-1.47-1.27-.48-1.98-.48-1.37.16-1.98.48-1.09.81-1.46,1.47c-.36.65-.54,1.46-.54,2.41s.18,1.75.54,2.41c.37.65.84,1.15,1.45,1.47s1.26.48,1.97.48,1.37-.16,1.98-.48h0Z"/>
            <path class="cls-1" d="M76.79,19.27c.8.8,1.2,1.96,1.2,3.48v6.34h-1.37v-6.18c0-1.17-.29-2.08-.85-2.69-.57-.62-1.34-.93-2.32-.93s-1.83.34-2.44,1.01-.91,1.65-.91,2.94v5.87h-1.37v-6.18c0-1.17-.29-2.08-.85-2.69-.57-.62-1.35-.93-2.34-.93s-1.83.34-2.44,1.01-.91,1.65-.91,2.94v5.87h-1.39v-10.77s.02-.05.05-.05h1.34v1.86c.35-.68.83-1.18,1.47-1.53.63-.35,1.34-.53,2.12-.53.94,0,1.76.23,2.47.68s1.22,1.11,1.53,1.98c.29-.86.79-1.51,1.5-1.97s1.51-.68,2.41-.68c1.27,0,2.31.4,3.11,1.2h0Z"/>
            <path class="cls-1" d="M95.49,19.27c.8.8,1.2,1.96,1.2,3.48v6.34h-1.37v-6.18c0-1.17-.29-2.08-.85-2.69-.57-.62-1.34-.93-2.32-.93s-1.83.34-2.44,1.01-.91,1.65-.91,2.94v5.87h-1.37v-6.18c0-1.17-.29-2.08-.85-2.69-.57-.62-1.35-.93-2.34-.93s-1.83.34-2.44,1.01-.91,1.65-.91,2.94v5.87h-1.39v-10.77s.02-.05.05-.05h1.34v1.86c.35-.68.83-1.18,1.47-1.53.63-.35,1.34-.53,2.12-.53.94,0,1.76.23,2.47.68s1.22,1.11,1.53,1.98c.29-.86.79-1.51,1.5-1.97s1.51-.68,2.41-.68c1.27,0,2.31.4,3.11,1.2h0Z"/>
            <path class="cls-1" d="M108.53,24.22h-8.98c.04.82.23,1.52.59,2.1s.82,1.02,1.41,1.32c.58.29,1.22.45,1.9.45.9,0,1.66-.22,2.27-.65s1.02-1.02,1.22-1.76h1.47c-.26,1.06-.83,1.92-1.7,2.58s-1.95,1-3.26,1c-1.02,0-1.93-.23-2.74-.68-.81-.46-1.44-1.1-1.89-1.95-.46-.84-.68-1.82-.68-2.94s.23-2.11.68-2.95c.45-.84,1.08-1.49,1.88-1.95s1.73-.68,2.75-.68,1.93.23,2.71.68c.77.45,1.37,1.06,1.78,1.81.42.76.62,1.6.62,2.53,0,.48-.01.84-.04,1.09h0ZM106.68,21.03c-.34-.57-.8-1-1.38-1.29-.58-.29-1.22-.43-1.9-.43-1.03,0-1.91.33-2.64.99s-1.13,1.59-1.21,2.8h7.61c.01-.81-.15-1.49-.48-2.06Z"/>
            <path class="cls-1" d="M112.88,18.63c.62-.37,1.39-.56,2.31-.56v1.45h-.37c-1.01,0-1.81.27-2.42.81-.61.54-.91,1.45-.91,2.72v6.04h-1.39v-10.77s.02-.05.05-.05h1.34v1.92c.3-.68.77-1.2,1.39-1.56h0Z"/>
            <path class="cls-1" d="M117.33,20.74c.45-.84,1.07-1.48,1.86-1.95s1.7-.68,2.72-.68c1.34,0,2.44.33,3.3.99s1.42,1.56,1.67,2.69h-1.48c-.18-.78-.59-1.39-1.2-1.84-.62-.44-1.38-.66-2.29-.66-.73,0-1.38.16-1.96.49s-1.04.82-1.38,1.48-.51,1.46-.51,2.41.17,1.75.51,2.42.79,1.16,1.38,1.48c.58.33,1.23.5,1.96.5.91,0,1.67-.22,2.29-.67.62-.44,1.01-1.06,1.2-1.85h1.48c-.25,1.11-.81,2-1.68,2.67-.87.68-1.97,1.01-3.29,1.01-1.02,0-1.92-.23-2.72-.68s-1.42-1.1-1.86-1.95c-.45-.84-.68-1.82-.68-2.94s.23-2.11.68-2.94h0Z"/>
            <path class="cls-1" d="M138.79,24.22h-8.98c.04.82.23,1.52.59,2.1.36.58.82,1.02,1.41,1.32.58.29,1.22.45,1.9.45.9,0,1.65-.22,2.27-.65s1.02-1.02,1.22-1.76h1.47c-.26,1.06-.83,1.92-1.7,2.58-.87.67-1.95,1-3.26,1-1.02,0-1.93-.23-2.74-.68s-1.44-1.1-1.89-1.95c-.46-.84-.68-1.82-.68-2.94s.23-2.11.68-2.95c.45-.84,1.08-1.49,1.89-1.95s1.73-.68,2.75-.68,1.93.23,2.7.68c.77.45,1.37,1.06,1.78,1.81.42.76.62,1.6.62,2.53,0,.48-.01.84-.04,1.09h0ZM136.94,21.03c-.34-.57-.8-1-1.38-1.29-.58-.29-1.22-.43-1.9-.43-1.03,0-1.91.33-2.64.99s-1.13,1.59-1.21,2.8h7.61c.01-.81-.15-1.49-.48-2.06Z"/>
          </g>
        </g>
        <g>
          <path class="cls-1" d="M29.36,9.79c0,2.11-1.54,3.82-3.45,3.82h-7.65c-2.69,0-4.33-3.24-2.95-5.8l3.21-5.95C19.15.7,20.26,0,21.47,0h4.43C27.8,0,29.35,1.72,29.35,3.82v5.98Z"/>
          <path class="cls-1" d="M29.36,25.54c0,2.11-1.54,3.82-3.45,3.82h-7.65c-2.69,0-4.33-3.24-2.95-5.8l3.21-5.95c.63-1.15,1.74-1.86,2.95-1.86h4.43c1.9,0,3.45,1.72,3.45,3.82v5.98Z"/>
          <path class="cls-1" d="M0,3.82C0,1.72,1.54,0,3.45,0h7.65c2.69,0,4.33,3.24,2.95,5.8l-3.21,5.95c-.63,1.15-1.74,1.86-2.95,1.86H3.47C1.56,13.61.01,11.9.01,9.79V3.82Z"/>
          <path class="cls-1" d="M0,19.57c0-2.11,1.54-3.82,3.45-3.82h7.65c2.69,0,4.33,3.24,2.95,5.8l-3.21,5.95c-.63,1.15-1.74,1.86-2.95,1.86H3.47c-1.91,0-3.45-1.72-3.45-3.82v-5.98Z"/>
        </g>
      </g>
    </g>
  </g>
</svg>